<?xml version="1.0" standalone="no"?>
<!DOCTYPE svg PUBLIC "-//W3C//DTD SVG 1.1//EN" "http://www.w3.org/Graphics/SVG/1.1/DTD/svg11.dtd">
<svg class="SVGInline-svg PanoSeen_svg_1x6NrL-svg" viewBox="0 0 16 16" xmlns="http://www.w3.org/2000/svg"><path d="M8 0a8 8 0 1 0 0 16A8 8 0 0 0 8 0zm3.84 6.504l-4.697 4.54a.556.556 0 0 1-.388.156.556.556 0 0 1-.387-.155L4.16 8.91a.517.517 0 0 1 0-.749.561.561 0 0 1 .775 0l1.82 1.759 4.308-4.166a.561.561 0 0 1 .775 0 .517.517 0 0 1 0 .75z" fill="#fff" fill-rule="evenodd"></path></svg>